<?xml version="1.0" encoding="utf-8"?>
<!-- Generator: Adobe Illustrator 18.0.0, SVG Export Plug-In . SVG Version: 6.00 Build 0)  -->
<!DOCTYPE svg PUBLIC "-//W3C//DTD SVG 1.1//EN" "http://www.w3.org/Graphics/SVG/1.1/DTD/svg11.dtd">
<svg version="1.1" id="Layer_1" xmlns="http://www.w3.org/2000/svg" xmlns:xlink="http://www.w3.org/1999/xlink" x="0px" y="0px"
	 width="99.2px" height="66.441px" viewBox="0 0 99.2 66.441" enable-background="new 0 0 99.2 66.441" xml:space="preserve">
<g>
	<g>
		<path fill="#B1AEA3" d="M59.93,65.978c-0.173,0-0.346-0.045-0.5-0.134L0.702,31.896C0.224,31.62,0.06,31.008,0.336,30.53
			c0.276-0.479,0.888-0.644,1.366-0.366l58.227,33.657L96.843,42.37v-8.729c0-0.553,0.447-1,1-1s1,0.447,1,1v9.305
			c0,0.356-0.189,0.686-0.497,0.864L60.433,65.842C60.276,65.933,60.104,65.978,59.93,65.978z"/>
	</g>
	<g>
		<path fill="#B1AEA3" d="M30.578,39.713c-0.116,0-0.232-0.021-0.344-0.061c-0.288-0.105-0.512-0.338-0.606-0.629
			C26.348,28.979,17.749,27.609,10.162,26.4c-3.553-0.566-6.908-1.101-9.438-2.476c-0.316-0.172-0.516-0.5-0.522-0.86
			c-0.007-0.359,0.18-0.694,0.489-0.878c2.236-1.328,4.594-2.733,7.003-4.169C19.376,11.056,32.616,3.166,38.666,0.12
			c0.254-0.126,0.552-0.142,0.816-0.036c2.188,0.863,4.613,1.192,7.181,1.541c7.116,0.967,15.182,2.062,22.686,14.54
			c0.141,0.234,0.18,0.517,0.106,0.78c-0.072,0.265-0.25,0.486-0.49,0.616c-11.229,6.032-24.32,13.641-37.861,22.002
			C30.943,39.662,30.762,39.713,30.578,39.713z M3.388,22.91c2.021,0.708,4.5,1.103,7.089,1.515
			c7.467,1.19,16.691,2.659,20.628,12.789c12.826-7.897,25.222-15.102,35.979-20.911C60.247,5.489,53.207,4.532,46.394,3.607
			c-2.532-0.344-4.933-0.67-7.22-1.502c-6.155,3.148-19.05,10.833-30.456,17.63C6.902,20.818,5.115,21.883,3.388,22.91z"/>
	</g>
	<g>
		<path fill="#B1AEA3" d="M59.93,56.564c-0.175,0-0.35-0.046-0.506-0.138c-2.876-1.687-5.319-4.538-7.907-7.558
			c-4.306-5.025-8.759-10.223-15.503-10.223c-1.483,0-3.06,0.256-4.685,0.759l-0.238,0.151c-0.31,0.195-0.698,0.208-1.019,0.033
			c-0.319-0.176-0.519-0.512-0.519-0.877v-0.108c0-0.43,0.274-0.812,0.682-0.948l0.238-0.077
			c12.963-8.23,27.686-16.776,37.539-21.79c0.043-0.021,0.089-0.041,0.135-0.057c1.996-0.67,3.94-1.01,5.778-1.01
			c7.666,0,12.638,5.802,17.023,10.921c2.475,2.889,4.812,5.617,7.399,7.135c0.305,0.179,0.492,0.505,0.494,0.857
			c0.002,0.354-0.184,0.682-0.486,0.863c-8.338,4.993-37.635,21.765-37.93,21.934C60.272,56.521,60.101,56.564,59.93,56.564z
			 M36.014,36.646c7.664,0,12.636,5.802,17.022,10.921c2.318,2.707,4.518,5.272,6.913,6.833
			c3.767-2.156,27.025-15.485,36.018-20.808c-2.304-1.708-4.37-4.119-6.536-6.647c-4.307-5.025-8.759-10.223-15.505-10.223
			c-1.601,0-3.307,0.297-5.073,0.883c-8.758,4.461-21.365,11.714-33.143,19.044C35.812,36.647,35.912,36.646,36.014,36.646z"/>
	</g>
	<g>
		<path fill="#B1AEA3" d="M80.521,31.853c-0.225,0-0.45-0.075-0.637-0.229c-0.056-0.046-5.676-4.654-12.936-7.466
			c-0.515-0.199-0.771-0.778-0.571-1.294s0.777-0.771,1.294-0.571c7.574,2.934,13.25,7.593,13.488,7.79
			c0.425,0.353,0.484,0.982,0.133,1.408C81.094,31.729,80.809,31.853,80.521,31.853z"/>
	</g>
	<g>
		<path fill="#B1AEA3" d="M75.096,35.845c-0.225,0-0.45-0.075-0.637-0.229c-0.056-0.046-5.676-4.654-12.935-7.466
			c-0.515-0.199-0.771-0.778-0.571-1.294s0.777-0.77,1.294-0.571c7.573,2.934,13.249,7.593,13.487,7.79
			c0.425,0.353,0.484,0.982,0.133,1.408C75.669,35.721,75.384,35.845,75.096,35.845z"/>
	</g>
	<g>
		<path fill="#B1AEA3" d="M69.484,39.658c-0.225,0-0.45-0.075-0.637-0.229c-0.056-0.046-5.677-4.654-12.936-7.466
			c-0.515-0.199-0.771-0.778-0.571-1.294s0.778-0.771,1.294-0.571c7.573,2.934,13.25,7.593,13.488,7.79
			c0.425,0.353,0.484,0.982,0.133,1.407C70.059,39.534,69.772,39.658,69.484,39.658z"/>
	</g>
	<g>
		<path fill="#B1AEA3" d="M51.441,15.553c-0.195,0-0.393-0.057-0.565-0.176c-0.06-0.041-6.068-4.13-13.549-6.282
			c-0.531-0.152-0.837-0.707-0.685-1.237c0.152-0.531,0.712-0.835,1.237-0.685c7.805,2.245,13.874,6.381,14.129,6.556
			c0.455,0.312,0.57,0.935,0.258,1.391C52.073,15.401,51.76,15.553,51.441,15.553z"/>
	</g>
	<g>
		<path fill="#B1AEA3" d="M46.395,20.014c-0.195,0-0.393-0.057-0.565-0.176c-0.06-0.041-6.068-4.13-13.549-6.283
			c-0.531-0.152-0.837-0.707-0.685-1.237s0.708-0.835,1.237-0.685c7.805,2.246,13.874,6.382,14.129,6.557
			c0.455,0.312,0.57,0.935,0.258,1.391C47.026,19.862,46.713,20.014,46.395,20.014z"/>
	</g>
	<g>
		<path fill="#B1AEA3" d="M41.146,24.312c-0.195,0-0.393-0.057-0.565-0.176c-0.06-0.041-6.068-4.13-13.549-6.282
			c-0.531-0.152-0.837-0.707-0.685-1.237s0.709-0.835,1.237-0.685c7.805,2.245,13.874,6.381,14.129,6.556
			c0.455,0.312,0.57,0.935,0.258,1.391C41.777,24.161,41.464,24.312,41.146,24.312z"/>
	</g>
	<g>
		<path fill="#B1AEA3" d="M59.93,65.978c-0.553,0-1-0.447-1-1v-9.413c0-0.553,0.447-1,1-1s1,0.447,1,1v9.413
			C60.93,65.53,60.482,65.978,59.93,65.978z"/>
	</g>
	<g>
		<path fill="#B1AEA3" d="M30.554,48.997c-0.001,0-0.002,0-0.003,0c-0.552-0.001-0.998-0.45-0.997-1.003l0.024-9.284
			c0.001-0.551,0.449-0.997,1-0.997c0.001,0,0.002,0,0.003,0c0.552,0.001,0.998,0.45,0.997,1.003L31.554,48
			C31.553,48.551,31.104,48.997,30.554,48.997z"/>
	</g>
	<g>
		<path fill="#B1AEA3" d="M1.202,32.03c-0.553,0-1-0.447-1-1v-7.984c0-0.553,0.447-1,1-1s1,0.447,1,1v7.984
			C2.202,31.583,1.755,32.03,1.202,32.03z"/>
	</g>
</g>
</svg>
