<?xml version="1.0" encoding="utf-8"?>
<!-- Generator: Adobe Illustrator 18.0.0, SVG Export Plug-In . SVG Version: 6.00 Build 0)  -->
<!DOCTYPE svg PUBLIC "-//W3C//DTD SVG 1.1//EN" "http://www.w3.org/Graphics/SVG/1.1/DTD/svg11.dtd">
<svg version="1.1" id="Layer_1" xmlns="http://www.w3.org/2000/svg" xmlns:xlink="http://www.w3.org/1999/xlink" x="0px" y="0px"
	 width="101.727px" height="62.892px" viewBox="0 0 101.727 62.892" enable-background="new 0 0 101.727 62.892"
	 xml:space="preserve">
<g>
	<g>
		<path fill="#B1AEA3" d="M52.844,51.186c-0.173,0-0.346-0.045-0.5-0.134l-11.797-6.812c-0.479-0.276-0.643-0.888-0.366-1.366
			c0.276-0.479,0.889-0.643,1.366-0.366l11.295,6.522l45.707-26.562L63.587,2.283L38.773,16.702
			c-0.476,0.276-1.089,0.116-1.366-0.362c-0.278-0.477-0.115-1.089,0.362-1.366l25.313-14.71c0.309-0.182,0.691-0.181,1.002-0.002
			L101.044,21.6c0.309,0.179,0.499,0.508,0.5,0.865c0.001,0.356-0.189,0.687-0.497,0.865l-47.7,27.72
			C53.19,51.141,53.018,51.186,52.844,51.186z"/>
	</g>
	<g>
		<path fill="#B1AEA3" d="M69.018,28.323c-0.183,0-0.365-0.05-0.526-0.149l-13.706-8.485c-0.298-0.185-0.478-0.513-0.474-0.863
			c0.005-0.351,0.192-0.674,0.495-0.851l8.752-5.119c0.311-0.181,0.694-0.182,1.005-0.003l14.302,8.258
			c0.31,0.179,0.501,0.511,0.5,0.868c-0.001,0.358-0.192,0.688-0.504,0.866l-9.348,5.347C69.36,28.279,69.188,28.323,69.018,28.323z
			 M57.251,18.862l11.787,7.297l7.32-4.187l-12.292-7.098L57.251,18.862z"/>
	</g>
	<g>
		<path fill="#B1AEA3" d="M52.844,62.892c-0.173,0-0.346-0.045-0.5-0.134L34.311,52.346c-0.479-0.276-0.643-0.888-0.366-1.366
			c0.276-0.479,0.889-0.643,1.366-0.366l17.531,10.123l46.702-27.141v-11.13c0-0.553,0.447-1,1-1s1,0.447,1,1v11.705
			c0,0.356-0.189,0.686-0.497,0.864l-47.7,27.721C53.19,62.847,53.018,62.892,52.844,62.892z"/>
	</g>
	<g>
		<path fill="#B1AEA3" d="M52.844,62.892c-0.553,0-1-0.447-1-1V50.186c0-0.553,0.447-1,1-1s1,0.447,1,1v11.706
			C53.844,62.445,53.396,62.892,52.844,62.892z"/>
	</g>
	<g>
		<path fill="#B1AEA3" d="M18.465,47.629c-9.874,0-17.907-8.032-17.907-17.906s8.033-17.907,17.907-17.907
			s17.907,8.033,17.907,17.907S28.339,47.629,18.465,47.629z M18.465,13.816c-8.771,0-15.907,7.136-15.907,15.907
			c0,8.771,7.136,15.906,15.907,15.906s15.907-7.136,15.907-15.906C34.372,20.952,27.236,13.816,18.465,13.816z"/>
	</g>
	<g>
		<g>
			<g>
				<path fill="#B1AEA3" d="M19.419,32.974l-2-0.01c0,0,0.007-1.496,0.007-2.512c0-1.383,0.492-1.884,1.285-2.244
					c0.328-0.148,0.617-0.248,0.901-0.345c0.436-0.148,0.78-0.266,1.247-0.583c0.579-0.395,0.911-1.085,0.91-1.895
					c-0.003-1.654-1.597-2.548-3.095-2.548c-1.652,0.003-2.639,0.917-2.729,1.003c-0.336,0.372-0.905,0.438-1.322,0.139
					c-0.448-0.323-0.551-0.947-0.229-1.396c0.206-0.286,1.777-1.74,4.277-1.745c2.468,0,5.092,1.593,5.097,4.545
					c0.001,1.483-0.649,2.777-1.785,3.55c-0.69,0.471-1.241,0.658-1.728,0.824c-0.227,0.077-0.459,0.154-0.719,0.272
					c-0.03,0.014-0.059,0.025-0.087,0.038c-0.012,0.064-0.025,0.184-0.025,0.385C19.426,31.472,19.419,32.974,19.419,32.974z"/>
			</g>
		</g>
		<g>
			<circle fill="#B1AEA3" cx="18.472" cy="37.93" r="1.627"/>
		</g>
	</g>
</g>
</svg>
