<?xml version="1.0" encoding="utf-8"?>
<!-- Generator: Adobe Illustrator 18.0.0, SVG Export Plug-In . SVG Version: 6.00 Build 0)  -->
<!DOCTYPE svg PUBLIC "-//W3C//DTD SVG 1.1//EN" "http://www.w3.org/Graphics/SVG/1.1/DTD/svg11.dtd">
<svg version="1.1" id="Layer_1" xmlns="http://www.w3.org/2000/svg" xmlns:xlink="http://www.w3.org/1999/xlink" x="0px" y="0px"
	 width="447.293px" height="30px" viewBox="0 0 447.293 30" enable-background="new 0 0 447.293 30" xml:space="preserve">
<g>
	<g>
		<path fill="#4A4944" d="M223.146,7.519h1.738v13.796h8.669v1.606h-10.407V7.519z"/>
		<path fill="#4A4944" d="M248.446,9.103h-9.395v5.259h8.405v1.585h-8.405v5.391h9.505v1.584h-11.243V7.519h11.133V9.103z"/>
		<path fill="#4A4944" d="M258.126,14.384c3.433,0.748,5.017,2.002,5.017,4.379c0,2.662-2.2,4.378-5.259,4.378
			c-2.442,0-4.444-0.813-6.293-2.464l1.078-1.276c1.606,1.452,3.146,2.179,5.281,2.179c2.068,0,3.433-1.078,3.433-2.641
			c0-1.452-0.771-2.267-4.005-2.948c-3.543-0.771-5.171-1.915-5.171-4.467c0-2.465,2.135-4.225,5.061-4.225
			c2.244,0,3.851,0.638,5.413,1.892l-1.013,1.343c-1.43-1.166-2.86-1.672-4.444-1.672c-2.002,0-3.278,1.1-3.278,2.508
			C253.945,12.844,254.737,13.657,258.126,14.384z"/>
		<path fill="#4A4944" d="M272.514,14.384c3.433,0.748,5.017,2.002,5.017,4.379c0,2.662-2.2,4.378-5.259,4.378
			c-2.442,0-4.444-0.813-6.293-2.464l1.078-1.276c1.606,1.452,3.146,2.179,5.281,2.179c2.068,0,3.433-1.078,3.433-2.641
			c0-1.452-0.771-2.267-4.005-2.948c-3.543-0.771-5.171-1.915-5.171-4.467c0-2.465,2.135-4.225,5.061-4.225
			c2.244,0,3.851,0.638,5.413,1.892l-1.013,1.343c-1.43-1.166-2.86-1.672-4.444-1.672c-2.002,0-3.278,1.1-3.278,2.508
			C268.333,12.844,269.125,13.657,272.514,14.384z"/>
		<path fill="#4A4944" d="M288.771,23.185c-4.687,0-7.833-3.674-7.833-7.942s3.19-7.987,7.877-7.987s7.833,3.674,7.833,7.943
			C296.648,19.467,293.458,23.185,288.771,23.185z M288.771,8.861c-3.521,0-6.028,2.816-6.028,6.337s2.552,6.381,6.072,6.381
			s6.029-2.816,6.029-6.337S292.292,8.861,288.771,8.861z"/>
		<path fill="#4A4944" d="M312.202,7.519h1.694v15.402h-1.386l-9.946-12.63v12.63h-1.693V7.519h1.628l9.703,12.344V7.519z"/>
		<path fill="#4A4944" d="M331.407,17.486h-3.74v5.435h-1.738V7.519h5.765c3.477,0,5.765,1.849,5.765,4.907
			C337.458,15.77,334.686,17.486,331.407,17.486z M331.562,9.125h-3.895v6.777h3.806c2.553,0,4.225-1.364,4.225-3.411
			C335.697,10.27,334.048,9.125,331.562,9.125z"/>
		<path fill="#4A4944" d="M341.152,7.519h1.738v13.796h8.669v1.606h-10.407V7.519z"/>
		<path fill="#4A4944" d="M369.666,22.921h-1.87l-1.805-4.07h-8.383l-1.826,4.07H354l7.019-15.513h1.628L369.666,22.921z
			 M361.811,9.433l-3.521,7.855h7.02L361.811,9.433z"/>
		<path fill="#4A4944" d="M384.56,7.519h1.694v15.402h-1.386l-9.946-12.63v12.63h-1.693V7.519h1.628l9.703,12.344V7.519z"/>
		<path fill="#4A4944" d="M402.467,7.519h1.694v15.402h-1.386l-9.945-12.63v12.63h-1.694V7.519h1.628l9.703,12.344V7.519z"/>
		<path fill="#4A4944" d="M410.957,7.519v15.402h-1.738V7.519H410.957z"/>
		<path fill="#4A4944" d="M427.349,7.519h1.694v15.402h-1.386l-9.946-12.63v12.63h-1.693V7.519h1.628l9.703,12.344V7.519z"/>
		<path fill="#4A4944" d="M441.076,23.185c-4.841,0-7.833-3.521-7.833-7.942c0-4.247,3.103-7.987,7.724-7.987
			c2.596,0,4.202,0.748,5.742,2.046l-1.122,1.32c-1.188-1.034-2.508-1.76-4.687-1.76c-3.41,0-5.853,2.882-5.853,6.337
			c0,3.696,2.354,6.425,6.095,6.425c1.76,0,3.389-0.683,4.444-1.541v-3.828H440.9v-1.562h6.359v6.14
			C445.829,22.106,443.673,23.185,441.076,23.185z"/>
	</g>
	<g>
		<g>
			<rect x="199.978" y="0.218" fill="#4A4944" width="1" height="30"/>
		</g>
	</g>
	<polyline fill="#4A4944" points="0.686,20.124 -0.033,20.124 -0.033,26.501 0.686,26.501 	"/>
	<polygon fill="#4A4944" points="7.93,20.124 8.631,20.124 8.631,26.501 8.057,26.501 3.94,21.272 3.94,26.501 3.238,26.501 
		3.238,20.124 3.912,20.124 7.93,25.235 	"/>
	<g>
		<path fill="#4A4944" d="M13.408,22.966c1.421,0.31,2.077,0.829,2.077,1.812c0,1.103-0.911,1.814-2.177,1.814
			c-1.011,0-1.84-0.337-2.606-1.02l0.447-0.528c0.665,0.6,1.302,0.901,2.186,0.901c0.856,0,1.421-0.446,1.421-1.094
			c0-0.601-0.318-0.938-1.658-1.22c-1.467-0.319-2.141-0.793-2.141-1.849c0-1.02,0.884-1.75,2.096-1.75
			c0.929,0,1.594,0.265,2.241,0.784l-0.419,0.555c-0.592-0.482-1.185-0.692-1.841-0.692c-0.829,0-1.357,0.456-1.357,1.039
			C11.677,22.328,12.005,22.665,13.408,22.966"/>
	</g>
	<polygon fill="#4A4944" points="19.914,26.501 19.185,26.501 19.185,20.789 17.044,20.789 17.044,20.124 22.055,20.124 
		22.055,20.789 19.914,20.789 	"/>
	<g>
		<path fill="#4A4944" d="M26.777,20.789h-1.969v2.587h1.959c0.957,0,1.64-0.491,1.64-1.32
			C28.407,21.262,27.806,20.789,26.777,20.789 M28.48,26.501l-1.85-2.478h-1.822v2.478h-0.719v-6.377h2.742
			c1.403,0,2.305,0.756,2.305,1.904c0,1.066-0.729,1.685-1.731,1.867l1.959,2.606H28.48z"/>
		<path fill="#4A4944" d="M36.572,23.777c0,1.859-1.066,2.824-2.66,2.824c-1.576,0-2.651-0.965-2.651-2.769v-3.708h0.72v3.663
			c0,1.375,0.728,2.149,1.949,2.149c1.175,0,1.923-0.71,1.923-2.104v-3.708h0.719V23.777z"/>
		<path fill="#4A4944" d="M41.877,26.61c-1.841,0-3.198-1.448-3.198-3.289c0-1.822,1.348-3.307,3.225-3.307
			c1.157,0,1.849,0.41,2.487,1.011l-0.492,0.529c-0.538-0.51-1.138-0.876-2.004-0.876c-1.412,0-2.469,1.14-2.469,2.625
			s1.066,2.641,2.469,2.641c0.875,0,1.449-0.336,2.059-0.919l0.474,0.464C43.763,26.163,43.034,26.61,41.877,26.61"/>
	</g>
	<polygon fill="#4A4944" points="48.785,26.501 48.056,26.501 48.056,20.789 45.915,20.789 45.915,20.124 50.925,20.124 
		50.925,20.789 48.785,20.789 	"/>
	<rect x="53.024" y="20.124" fill="#4A4944" width="0.719" height="6.377"/>
	<g>
		<path fill="#4A4944" d="M59.257,20.678c-1.457,0-2.496,1.167-2.496,2.625c0,1.457,1.056,2.641,2.514,2.641
			s2.496-1.166,2.496-2.623C61.771,21.863,60.714,20.678,59.257,20.678 M59.257,26.61c-1.94,0-3.244-1.522-3.244-3.289
			s1.321-3.307,3.262-3.307c1.941,0,3.243,1.521,3.243,3.289C62.518,25.07,61.197,26.61,59.257,26.61"/>
	</g>
	<polygon fill="#4A4944" points="69.418,20.124 70.118,20.124 70.118,26.501 69.545,26.501 65.427,21.272 65.427,26.501 
		64.726,26.501 64.726,20.124 65.4,20.124 69.418,25.235 	"/>
	<path fill="#4A4944" d="M75.296,20.916l-1.458,3.253h2.906L75.296,20.916z M78.548,26.501h-0.774l-0.747-1.686h-3.471L72.8,26.501
		h-0.739l2.907-6.422h0.674L78.548,26.501z"/>
	<polygon fill="#4A4944" points="80.492,20.124 81.211,20.124 81.211,25.836 84.801,25.836 84.801,26.501 80.492,26.501 	"/>
	<g>
		<path fill="#4A4944" d="M92.566,20.788h-1.612v2.806h1.576c1.056,0,1.749-0.565,1.749-1.412
			C94.279,21.262,93.596,20.788,92.566,20.788 M92.503,24.25h-1.549v2.251h-0.72v-6.378h2.387c1.439,0,2.387,0.766,2.387,2.032
			C95.008,23.54,93.86,24.25,92.503,24.25"/>
		<path fill="#4A4944" d="M99.693,20.789h-1.968v2.587h1.958c0.957,0,1.641-0.491,1.641-1.32
			C101.324,21.262,100.723,20.789,99.693,20.789 M101.396,26.501l-1.849-2.478h-1.822v2.478h-0.72v-6.377h2.743
			c1.402,0,2.304,0.756,2.304,1.904c0,1.066-0.728,1.685-1.731,1.867l1.959,2.606H101.396z"/>
	</g>
	<path fill="#4A4944" d="M106.966,20.916l-1.459,3.253h2.907L106.966,20.916z M110.218,26.501h-0.774l-0.748-1.686h-3.471
		l-0.756,1.686h-0.738l2.906-6.422h0.674L110.218,26.501z"/>
	<g>
		<path fill="#4A4944" d="M114.702,26.61c-1.84,0-3.198-1.448-3.198-3.289c0-1.822,1.349-3.307,3.225-3.307
			c1.157,0,1.85,0.41,2.488,1.011l-0.493,0.529c-0.537-0.51-1.138-0.876-2.004-0.876c-1.412,0-2.468,1.14-2.468,2.625
			s1.065,2.641,2.468,2.641c0.874,0,1.449-0.336,2.059-0.919l0.474,0.464C116.587,26.163,115.858,26.61,114.702,26.61"/>
	</g>
	<polygon fill="#4A4944" points="121.611,26.501 120.883,26.501 120.883,20.789 118.742,20.789 118.742,20.124 123.752,20.124 
		123.752,20.789 121.611,20.789 	"/>
	<rect x="125.849" y="20.124" fill="#4A4944" width="0.721" height="6.377"/>
	<path fill="#4A4944" d="M132.036,26.61c-1.841,0-3.198-1.448-3.198-3.289c0-1.822,1.349-3.307,3.225-3.307
		c1.157,0,1.85,0.41,2.488,1.011l-0.493,0.529c-0.537-0.51-1.138-0.876-2.004-0.876c-1.412,0-2.468,1.14-2.468,2.625
		s1.065,2.641,2.468,2.641c0.874,0,1.449-0.336,2.059-0.919l0.474,0.464C133.921,26.163,133.192,26.61,132.036,26.61"/>
	<polygon fill="#4A4944" points="141.139,20.78 137.249,20.78 137.249,22.958 140.729,22.958 140.729,23.613 137.249,23.613 
		137.249,25.845 141.184,25.845 141.184,26.501 136.529,26.501 136.529,20.124 141.139,20.124 	"/>
	<g>
		<path fill="#4A4944" d="M149.698,26.61c-2.004,0-3.243-1.458-3.243-3.289c0-1.759,1.284-3.307,3.198-3.307
			c1.075,0,1.739,0.31,2.377,0.847l-0.464,0.547c-0.491-0.429-1.039-0.73-1.941-0.73c-1.412,0-2.423,1.195-2.423,2.625
			c0,1.53,0.974,2.66,2.524,2.66c0.729,0,1.402-0.283,1.84-0.637V23.74h-1.941v-0.647h2.633v2.542
			C151.666,26.163,150.774,26.61,149.698,26.61"/>
		<path fill="#4A4944" d="M159.777,23.777c0,1.859-1.066,2.824-2.66,2.824c-1.576,0-2.651-0.965-2.651-2.769v-3.708h0.72v3.663
			c0,1.375,0.729,2.149,1.95,2.149c1.174,0,1.922-0.71,1.922-2.104v-3.708h0.719V23.777z"/>
	</g>
	<rect x="162.23" y="20.124" fill="#4A4944" width="0.721" height="6.377"/>
	<g>
		<path fill="#4A4944" d="M167.716,20.789h-1.495v5.047h1.495c1.612,0,2.642-1.093,2.642-2.514
			C170.358,21.9,169.328,20.789,167.716,20.789 M167.716,26.501h-2.214v-6.377h2.214c2.004,0,3.389,1.375,3.389,3.179
			S169.72,26.501,167.716,26.501"/>
	</g>
	<polygon fill="#4A4944" points="177.922,20.78 174.032,20.78 174.032,22.958 177.512,22.958 177.512,23.613 174.032,23.613 
		174.032,25.845 177.967,25.845 177.967,26.501 173.312,26.501 173.312,20.124 177.922,20.124 	"/>
	<g>
		<path fill="#4A4944" d="M8.452,13.505c-0.094-0.235-0.833-1.935-0.96-2.218H3.119c-0.093,0.188-0.865,1.983-0.958,2.218H0.1
			C0.225,13.223,4.519,3.123,4.598,2.951h1.4c0.063,0.157,4.373,10.161,4.547,10.554H8.452z M5.291,6.081
			C5.117,6.474,3.937,9.163,3.828,9.447h2.925C6.659,9.242,5.432,6.443,5.291,6.081"/>
		<path fill="#4A4944" d="M18.443,2.761c1.762,0,3.13,0.818,3.996,1.746c-0.142,0.142-1.149,1.18-1.353,1.369
			c-0.566-0.614-1.416-1.227-2.643-1.227c-1.935,0-3.539,1.604-3.539,3.617c0,1.966,1.588,3.602,3.539,3.602
			c1.07,0,2.013-0.518,2.659-1.257c0.172,0.172,1.18,1.179,1.337,1.337c-0.85,0.912-2.25,1.808-3.996,1.808
			c-2.989,0-5.521-2.375-5.521-5.49C12.922,5.168,15.423,2.761,18.443,2.761"/>
	</g>
	<polygon fill="#4A4944" points="32.665,3.013 32.665,7.338 27.898,7.338 27.898,3.013 25.995,3.013 25.995,13.506 27.898,13.506 
		27.898,9.211 32.665,9.211 32.665,13.506 34.583,13.506 34.583,3.013 	"/>
	<rect x="39.177" y="3.012" fill="#4A4944" width="1.919" height="10.493"/>
	<polygon fill="#4A4944" points="45.642,3.013 45.642,13.506 53.681,13.506 53.681,11.665 47.53,11.665 47.53,9.133 52.484,9.133 
		52.484,7.292 47.53,7.292 47.53,4.854 53.727,4.854 53.727,3.013 	"/>
	<g>
		<path fill="#4A4944" d="M62.489,13.631H61.12c-0.173-0.504-3.979-10.02-4.216-10.618h2.062c0.188,0.503,2.674,6.952,2.879,7.488
			c0.204-0.551,2.689-7,2.846-7.488h2.029C66.532,3.501,62.663,13.207,62.489,13.631"/>
	</g>
	<polygon fill="#4A4944" points="70.12,3.013 70.12,13.506 78.158,13.506 78.158,11.665 72.007,11.665 72.007,9.133 76.962,9.133 
		76.962,7.292 72.007,7.292 72.007,4.854 78.205,4.854 78.205,3.013 	"/>
	<polygon fill="#4A4944" points="87.754,3.013 87.754,4.854 90.806,4.854 90.806,13.506 92.74,13.506 92.74,4.854 95.697,4.854 
		95.697,3.013 	"/>
	<polygon fill="#4A4944" points="105.844,3.013 105.844,7.338 101.079,7.338 101.079,3.013 99.174,3.013 99.174,13.506 
		101.079,13.506 101.079,9.211 105.844,9.211 105.844,13.506 107.763,13.506 107.763,3.013 	"/>
	<polygon fill="#4A4944" points="112.232,3.013 112.232,13.506 120.27,13.506 120.27,11.665 114.119,11.665 114.119,9.133 
		119.074,9.133 119.074,7.292 114.119,7.292 114.119,4.854 120.317,4.854 120.317,3.013 	"/>
	<path fill="#4A4944" d="M135.844,2.761c1.761,0,3.13,0.818,3.996,1.746c-0.142,0.142-1.149,1.18-1.354,1.369
		c-0.566-0.614-1.415-1.227-2.642-1.227c-1.935,0-3.539,1.604-3.539,3.617c0,1.966,1.588,3.602,3.539,3.602
		c1.07,0,2.013-0.518,2.659-1.257c0.172,0.172,1.18,1.179,1.337,1.337c-0.85,0.912-2.25,1.808-3.996,1.808
		c-2.989,0-5.521-2.375-5.521-5.49C130.323,5.168,132.824,2.761,135.844,2.761"/>
	<path fill="#4A4944" d="M148.004,13.756c-3.051,0-5.505-2.454-5.505-5.49c0-3.051,2.454-5.505,5.49-5.505
		c3.051,0,5.505,2.454,5.505,5.505C153.494,11.302,151.04,13.756,148.004,13.756 M147.989,4.617c-1.966,0-3.524,1.621-3.524,3.649
		c0,2.03,1.558,3.634,3.539,3.634c1.983,0,3.54-1.604,3.54-3.634C151.544,6.238,149.97,4.617,147.989,4.617"/>
	<path fill="#4A4944" d="M163.783,13.505c-0.205-0.33-2.061-3.413-2.297-3.806h-2.548v3.806h-1.888V3.013h5.538
		c1.918,0,3.334,1.479,3.334,3.367c0,1.557-1.101,2.783-2.281,3.082c0.221,0.347,2.265,3.697,2.501,4.043H163.783z M162.383,4.854
		h-3.445v3.021h3.46c0.928,0,1.558-0.661,1.558-1.495S163.326,4.854,162.383,4.854"/>
	<polygon fill="#4A4944" points="169.871,3.013 169.871,13.506 177.91,13.506 177.91,11.665 171.759,11.665 171.759,9.133 
		176.715,9.133 176.715,7.292 171.759,7.292 171.759,4.854 177.956,4.854 177.956,3.013 	"/>
</g>
</svg>
