<?xml version="1.0" encoding="utf-8"?>
<!-- Generator: Adobe Illustrator 18.0.0, SVG Export Plug-In . SVG Version: 6.00 Build 0)  -->
<!DOCTYPE svg PUBLIC "-//W3C//DTD SVG 1.1//EN" "http://www.w3.org/Graphics/SVG/1.1/DTD/svg11.dtd">
<svg version="1.1" id="Layer_1" xmlns="http://www.w3.org/2000/svg" xmlns:xlink="http://www.w3.org/1999/xlink" x="0px" y="0px"
	 width="102.181px" height="63.225px" viewBox="0 0 102.181 63.225" enable-background="new 0 0 102.181 63.225"
	 xml:space="preserve">
<g>
	<path fill="#B1AEA3" d="M52.286,51.058c-0.173,0-0.346-0.045-0.5-0.134l-11.797-6.811c-0.479-0.276-0.643-0.888-0.366-1.366
		s0.888-0.644,1.366-0.366l11.295,6.521l45.707-26.562L63.029,2.156L38.217,16.575c-0.478,0.276-1.09,0.115-1.367-0.362
		c-0.278-0.478-0.115-1.089,0.361-1.367l25.313-14.71c0.311-0.181,0.692-0.181,1.003-0.001l36.959,21.338
		c0.309,0.179,0.499,0.508,0.5,0.865s-0.189,0.687-0.497,0.866l-47.7,27.719C52.633,51.013,52.46,51.058,52.286,51.058z"/>
</g>
<g>
	<path fill="#B1AEA3" d="M68.46,28.195c-0.183,0-0.365-0.05-0.526-0.15l-13.706-8.485c-0.298-0.185-0.478-0.512-0.474-0.863
		c0.005-0.351,0.192-0.673,0.495-0.851l8.752-5.12c0.312-0.182,0.695-0.183,1.005-0.003l14.302,8.257
		c0.31,0.179,0.501,0.51,0.5,0.868s-0.192,0.688-0.504,0.866l-9.348,5.347C68.803,28.151,68.631,28.195,68.46,28.195z
		 M56.693,18.735l11.787,7.297l7.32-4.188l-12.292-7.097L56.693,18.735z"/>
</g>
<g>
	<path fill="#B1AEA3" d="M52.286,62.764c-0.173,0-0.346-0.045-0.5-0.134L33.753,52.219c-0.479-0.276-0.643-0.888-0.366-1.366
		s0.888-0.643,1.366-0.366l17.531,10.122l46.702-27.14v-11.13c0-0.552,0.447-1,1-1s1,0.448,1,1v11.706
		c0,0.356-0.189,0.686-0.497,0.864l-47.701,27.72C52.633,62.719,52.46,62.764,52.286,62.764z"/>
</g>
<g>
	<path fill="#B1AEA3" d="M52.286,61.764c-0.553,0-1-0.447-1-1V50.058c0-0.553,0.447-1,1-1s1,0.447,1,1v10.706
		C53.286,61.317,52.839,61.764,52.286,61.764z"/>
</g>
<g>
	<path fill="#B1AEA3" d="M17.907,47.503C8.033,47.503,0,39.469,0,29.595s8.033-17.907,17.907-17.907s17.906,8.033,17.906,17.907
		S27.781,47.503,17.907,47.503z M17.907,13.689C9.136,13.689,2,20.824,2,29.595c0,8.771,7.136,15.907,15.907,15.907
		c8.771,0,15.906-7.136,15.906-15.907C33.813,20.824,26.678,13.689,17.907,13.689z"/>
</g>
<g>
	<path fill="#B1AEA3" d="M14.298,36.759c-0.414,0-0.785-0.255-0.934-0.641l-1.854-4.823H9.95c-0.553,0-1-0.448-1-1s0.447-1,1-1
		h2.246c0.414,0,0.785,0.255,0.934,0.641l1.168,3.037l2.81-7.305c0.148-0.386,0.52-0.641,0.934-0.641h9.178c0.553,0,1,0.448,1,1
		s-0.447,1-1,1h-8.491l-3.496,9.091C15.083,36.505,14.712,36.759,14.298,36.759z"/>
</g>
</svg>
