<?xml version="1.0" encoding="utf-8"?>
<!-- Generator: Adobe Illustrator 18.0.0, SVG Export Plug-In . SVG Version: 6.00 Build 0)  -->
<!DOCTYPE svg PUBLIC "-//W3C//DTD SVG 1.1//EN" "http://www.w3.org/Graphics/SVG/1.1/DTD/svg11.dtd">
<svg version="1.1" id="Layer_1" xmlns="http://www.w3.org/2000/svg" xmlns:xlink="http://www.w3.org/1999/xlink" x="0px" y="0px"
	 width="107px" height="74.438px" viewBox="0 0 107 74.438" enable-background="new 0 0 107 74.438" xml:space="preserve">
<g>
	<g>
		<path fill="#B1AEA3" d="M53.54,73.595c-0.173,0-0.346-0.045-0.5-0.134L26.981,58.416c-0.31-0.179-0.5-0.509-0.5-0.866V46.164
			c0-0.553,0.447-1,1-1s1,0.447,1,1v10.809l25.057,14.467l24.884-14.461V46.168c0-0.553,0.447-1,1-1s1,0.447,1,1v11.386
			c0,0.356-0.189,0.686-0.497,0.864L54.043,73.459C53.887,73.55,53.714,73.595,53.54,73.595z"/>
	</g>
	<g>
		<path fill="#B1AEA3" d="M53.54,62.21c-0.173,0-0.346-0.045-0.5-0.134L26.981,47.03c-0.309-0.179-0.499-0.508-0.5-0.865
			c-0.001-0.356,0.189-0.687,0.497-0.865L52.86,30.258c0.312-0.181,0.693-0.181,1.003-0.001l26.059,15.045
			c0.309,0.179,0.499,0.508,0.5,0.865c0.001,0.356-0.189,0.687-0.497,0.865L54.043,62.074C53.888,62.165,53.714,62.21,53.54,62.21z
			 M29.477,46.161l24.062,13.894l23.889-13.884L53.365,32.279L29.477,46.161z"/>
	</g>
	<g>
		<path fill="#B1AEA3" d="M53.54,73.595c-0.553,0-1-0.447-1-1V61.21c0-0.553,0.447-1,1-1s1,0.447,1,1v11.385
			C54.54,73.147,54.093,73.595,53.54,73.595z"/>
	</g>
	<g>
		<g>
			<path fill="#B1AEA3" d="M79.511,58.552c-0.345,0-0.68-0.178-0.865-0.498c-0.278-0.477-0.115-1.089,0.361-1.366l25.386-14.752
				V31.125c0-0.552,0.447-1,1-1s1,0.448,1,1v11.386c0,0.356-0.189,0.686-0.497,0.864L80.013,58.416
				C79.854,58.508,79.682,58.552,79.511,58.552z"/>
		</g>
		<g>
			<path fill="#B1AEA3" d="M79.51,47.166c-0.173,0-0.346-0.045-0.5-0.134L52.951,31.987c-0.309-0.179-0.499-0.508-0.5-0.865
				s0.189-0.687,0.498-0.866l25.883-15.041c0.31-0.181,0.692-0.181,1.002-0.001l26.059,15.045c0.309,0.179,0.499,0.508,0.5,0.865
				s-0.189,0.687-0.498,0.866L80.012,47.03C79.856,47.121,79.684,47.166,79.51,47.166z M55.446,31.118l24.062,13.893l23.89-13.883
				L79.336,17.236L55.446,31.118z"/>
		</g>
	</g>
	<g>
		<path fill="#B1AEA3" d="M53.54,32.086c-0.173,0-0.346-0.044-0.5-0.134L26.981,16.907c-0.309-0.179-0.499-0.508-0.5-0.865
			c-0.001-0.357,0.189-0.687,0.497-0.866L52.86,0.135c0.312-0.181,0.693-0.181,1.003-0.001l26.059,15.045
			c0.309,0.179,0.499,0.508,0.5,0.865c0.001,0.357-0.189,0.687-0.497,0.866L54.043,31.951C53.887,32.041,53.714,32.086,53.54,32.086
			z M29.477,16.038l24.062,13.893l23.889-13.883L53.365,2.156L29.477,16.038z"/>
	</g>
	<g>
		<path fill="#B1AEA3" d="M27.568,58.552c-0.17,0-0.342-0.043-0.499-0.134L1.011,43.373c-0.31-0.179-0.5-0.509-0.5-0.866V31.121
			c0-0.552,0.447-1,1-1s1,0.448,1,1V41.93l25.559,14.756c0.479,0.276,0.643,0.888,0.366,1.366
			C28.25,58.372,27.914,58.552,27.568,58.552z"/>
	</g>
	<g>
		<path fill="#B1AEA3" d="M27.569,47.166c-0.173,0-0.346-0.045-0.5-0.134L1.011,31.987c-0.309-0.179-0.499-0.508-0.5-0.865
			s0.189-0.687,0.497-0.866L26.89,15.215c0.312-0.181,0.693-0.181,1.003-0.001l26.059,15.045c0.309,0.179,0.499,0.508,0.5,0.865
			s-0.189,0.687-0.497,0.866L28.072,47.03C27.916,47.121,27.743,47.166,27.569,47.166z M3.506,31.118l24.062,13.893l23.889-13.883
			L27.395,17.236L3.506,31.118z"/>
	</g>
	<g>
		<path fill="none" stroke="#B1AEA3" stroke-width="2" stroke-linecap="round" stroke-linejoin="round" stroke-miterlimit="10" d="
			M79.422,46.168"/>
	</g>
</g>
<g>
	<g>
		<path fill="#B1AEA3" d="M53.54,73.595c-0.173,0-0.346-0.045-0.5-0.134L26.981,58.416c-0.31-0.179-0.5-0.509-0.5-0.866V46.164
			c0-0.553,0.447-1,1-1s1,0.447,1,1v10.809l25.057,14.467l24.884-14.461V46.168c0-0.553,0.447-1,1-1s1,0.447,1,1v11.386
			c0,0.356-0.189,0.686-0.497,0.864L54.043,73.459C53.887,73.55,53.714,73.595,53.54,73.595z"/>
	</g>
	<g>
		<path fill="#B1AEA3" d="M53.54,62.21c-0.173,0-0.346-0.045-0.5-0.134L26.981,47.03c-0.309-0.179-0.499-0.508-0.5-0.865
			c-0.001-0.356,0.189-0.687,0.497-0.865L52.86,30.258c0.312-0.181,0.693-0.181,1.003-0.001l26.059,15.045
			c0.309,0.179,0.499,0.508,0.5,0.865c0.001,0.356-0.189,0.687-0.497,0.865L54.043,62.074C53.888,62.165,53.714,62.21,53.54,62.21z
			 M29.477,46.161l24.062,13.894l23.889-13.884L53.365,32.279L29.477,46.161z"/>
	</g>
	<g>
		<path fill="#B1AEA3" d="M53.54,73.595c-0.553,0-1-0.447-1-1V61.21c0-0.553,0.447-1,1-1s1,0.447,1,1v11.385
			C54.54,73.147,54.093,73.595,53.54,73.595z"/>
	</g>
	<g>
		<g>
			<path fill="#B1AEA3" d="M79.511,58.552c-0.345,0-0.68-0.178-0.865-0.498c-0.278-0.477-0.115-1.089,0.361-1.366l25.386-14.752
				V31.125c0-0.552,0.447-1,1-1s1,0.448,1,1v11.386c0,0.356-0.189,0.686-0.497,0.864L80.013,58.416
				C79.854,58.508,79.682,58.552,79.511,58.552z"/>
		</g>
		<g>
			<path fill="#B1AEA3" d="M79.51,47.166c-0.173,0-0.346-0.045-0.5-0.134L52.951,31.987c-0.309-0.179-0.499-0.508-0.5-0.865
				s0.189-0.687,0.498-0.866l25.883-15.041c0.31-0.181,0.692-0.181,1.002-0.001l26.059,15.045c0.309,0.179,0.499,0.508,0.5,0.865
				s-0.189,0.687-0.498,0.866L80.012,47.03C79.856,47.121,79.684,47.166,79.51,47.166z M55.446,31.118l24.062,13.893l23.89-13.883
				L79.336,17.236L55.446,31.118z"/>
		</g>
	</g>
	<g>
		<path fill="#B1AEA3" d="M53.54,32.086c-0.173,0-0.346-0.044-0.5-0.134L26.981,16.907c-0.309-0.179-0.499-0.508-0.5-0.865
			c-0.001-0.357,0.189-0.687,0.497-0.866L52.86,0.135c0.312-0.181,0.693-0.181,1.003-0.001l26.059,15.045
			c0.309,0.179,0.499,0.508,0.5,0.865c0.001,0.357-0.189,0.687-0.497,0.866L54.043,31.951C53.887,32.041,53.714,32.086,53.54,32.086
			z M29.477,16.038l24.062,13.893l23.889-13.883L53.365,2.156L29.477,16.038z"/>
	</g>
	<g>
		<path fill="#B1AEA3" d="M27.568,58.552c-0.17,0-0.342-0.043-0.499-0.134L1.011,43.373c-0.31-0.179-0.5-0.509-0.5-0.866V31.121
			c0-0.552,0.447-1,1-1s1,0.448,1,1V41.93l25.559,14.756c0.479,0.276,0.643,0.888,0.366,1.366
			C28.25,58.372,27.914,58.552,27.568,58.552z"/>
	</g>
	<g>
		<path fill="#B1AEA3" d="M27.569,47.166c-0.173,0-0.346-0.045-0.5-0.134L1.011,31.987c-0.309-0.179-0.499-0.508-0.5-0.865
			s0.189-0.687,0.497-0.866L26.89,15.215c0.312-0.181,0.693-0.181,1.003-0.001l26.059,15.045c0.309,0.179,0.499,0.508,0.5,0.865
			s-0.189,0.687-0.497,0.866L28.072,47.03C27.916,47.121,27.743,47.166,27.569,47.166z M3.506,31.118l24.062,13.893l23.889-13.883
			L27.395,17.236L3.506,31.118z"/>
	</g>
	<g>
		<path fill="none" stroke="#B1AEA3" stroke-width="2" stroke-linecap="round" stroke-linejoin="round" stroke-miterlimit="10" d="
			M79.422,46.168"/>
	</g>
</g>
<g>
	<g>
		<path fill="#B1AEA3" d="M59.214,17.77l-3.398-1.962l3.375-1.961c0.323-0.188,0.507-0.471,0.507-0.774
			c-0.001-0.305-0.188-0.588-0.514-0.776c-0.542-0.314-1.446-0.317-1.987-0.003l-3.72,2.164l-3.743-2.16
			c-0.541-0.316-1.449-0.319-1.984-0.006c-0.323,0.187-0.508,0.468-0.508,0.772c0,0.306,0.19,0.592,0.52,0.784l3.396,1.961
			l-3.372,1.962c-0.325,0.188-0.512,0.471-0.512,0.773c0,0.303,0.189,0.586,0.519,0.777c0.542,0.312,1.438,0.31,1.98-0.001
			l3.721-2.163l3.749,2.164c0.27,0.155,0.622,0.242,0.99,0.242c0.368,0,0.718-0.087,0.989-0.243c0.323-0.188,0.508-0.47,0.508-0.774
			C59.727,18.241,59.539,17.958,59.214,17.77z"/>
	</g>
	<g>
		<path fill="#B1AEA3" d="M35.154,30.504c-0.269-0.155-0.623-0.242-0.996-0.242h-5.181l-0.016-2.846
			c0.004-0.308-0.183-0.595-0.512-0.784c-0.612-0.353-1.77-0.286-2.246,0.202c-0.165,0.17-0.25,0.372-0.244,0.578l0.016,2.851h-5.19
			c-0.508,0-0.971,0.165-1.239,0.441c-0.166,0.17-0.251,0.372-0.246,0.571c-0.004,0.305,0.181,0.59,0.511,0.784
			c0.269,0.154,0.615,0.239,0.994,0.239h5.181l0.016,2.852c0,0.306,0.187,0.59,0.515,0.78c0.268,0.154,0.612,0.237,0.974,0.237
			h0.029c0.507,0,0.969-0.165,1.239-0.439c0.166-0.17,0.251-0.372,0.247-0.58l-0.016-2.851h5.177c0.516,0,0.984-0.165,1.254-0.441
			c0.165-0.169,0.25-0.372,0.244-0.571C35.667,30.977,35.482,30.693,35.154,30.504z M27.49,35.814L27.49,35.814v0.002V35.814z"/>
	</g>
	<g>
		<path fill="#B1AEA3" d="M85.09,32.848l-9.48-5.472c-0.541-0.317-1.439-0.314-1.977,0c-0.325,0.188-0.511,0.47-0.511,0.773
			c0,0.303,0.188,0.588,0.516,0.777l9.48,5.473c0.27,0.155,0.622,0.242,0.99,0.242c0.367,0,0.718-0.087,0.989-0.243
			c0.323-0.188,0.508-0.47,0.507-0.774C85.604,33.319,85.415,33.037,85.09,32.848z"/>
	</g>
	<g>
		<path fill="#B1AEA3" d="M61.445,46.81l-9.48-5.473c-0.547-0.314-1.442-0.312-1.977,0c-0.33,0.191-0.518,0.475-0.518,0.78
			c0,0.303,0.188,0.586,0.515,0.776l9.488,5.469c0.27,0.155,0.622,0.242,0.99,0.242c0.367,0,0.718-0.087,0.989-0.243
			c0.323-0.188,0.507-0.471,0.507-0.774C61.957,47.281,61.77,46.998,61.445,46.81z"/>
	</g>
	<g>
		<path fill="#B1AEA3" d="M56.918,49.44l-9.484-5.476c-0.552-0.306-1.44-0.303-1.981,0.008c-0.324,0.188-0.511,0.471-0.509,0.774
			c0,0.303,0.188,0.586,0.515,0.776l9.481,5.472c0.269,0.157,0.621,0.243,0.99,0.243c0.369,0,0.721-0.087,0.989-0.243
			c0.325-0.189,0.514-0.472,0.512-0.779C57.43,49.911,57.243,49.628,56.918,49.44z"/>
	</g>
</g>
</svg>
