<?xml version="1.0" encoding="utf-8"?>
<!-- Generator: Adobe Illustrator 18.0.0, SVG Export Plug-In . SVG Version: 6.00 Build 0)  -->
<!DOCTYPE svg PUBLIC "-//W3C//DTD SVG 1.1//EN" "http://www.w3.org/Graphics/SVG/1.1/DTD/svg11.dtd">
<svg version="1.1" id="Layer_1" xmlns="http://www.w3.org/2000/svg" xmlns:xlink="http://www.w3.org/1999/xlink" x="0px" y="0px"
	 width="104.8px" height="51.425px" viewBox="0 0 104.8 51.425" enable-background="new 0 0 104.8 51.425" xml:space="preserve">
<g>
	<path fill="#B1AEA3" d="M79.706,24.318c-0.17,0-0.342-0.043-0.499-0.134l-16.622-9.597c-0.479-0.276-0.643-0.888-0.366-1.366
		s0.889-0.643,1.366-0.366l16.622,9.597c0.479,0.276,0.643,0.888,0.366,1.366C80.388,24.139,80.052,24.318,79.706,24.318z"/>
</g>
<g>
	<path fill="#B1AEA3" d="M71.395,29.816c-0.17,0-0.342-0.043-0.499-0.134l-16.622-9.597c-0.479-0.276-0.643-0.888-0.366-1.366
		s0.889-0.643,1.366-0.366l16.622,9.597c0.479,0.276,0.643,0.888,0.366,1.366C72.076,29.637,71.74,29.816,71.395,29.816z"/>
</g>
<g>
	<path fill="#B1AEA3" d="M63.084,35.394c-0.17,0-0.342-0.043-0.499-0.134l-7.195-4.153c-0.479-0.276-0.643-0.888-0.366-1.366
		s0.889-0.643,1.366-0.366l7.195,4.153c0.479,0.276,0.643,0.888,0.366,1.366C63.766,35.214,63.43,35.394,63.084,35.394z"/>
</g>
<g>
	<path fill="#B1AEA3" d="M56.1,51.059c-0.18,0-0.359-0.048-0.519-0.145l-16.362-9.912c-0.472-0.286-0.623-0.901-0.337-1.374
		c0.287-0.472,0.902-0.621,1.374-0.337l15.854,9.604l45.694-26.554L66.843,2.155L49.2,12.408c-0.478,0.276-1.09,0.116-1.367-0.361
		c-0.278-0.478-0.115-1.09,0.361-1.367L66.338,0.136c0.311-0.182,0.692-0.181,1.003-0.002L104.3,21.473
		c0.309,0.179,0.499,0.508,0.5,0.865c0.001,0.356-0.189,0.687-0.497,0.865l-47.7,27.72C56.446,51.014,56.273,51.059,56.1,51.059z"/>
</g>
<g>
	<path fill="#B1AEA3" d="M24.4,37.666c-2.825,0-5.6-0.766-8.024-2.215L2.835,27.359c-1.298-0.775-2.072-2.141-2.072-3.652
		c0-1.511,0.774-2.876,2.072-3.651l13.541-8.092c4.85-2.896,11.198-2.896,16.048,0l13.541,8.092
		c1.297,0.775,2.071,2.141,2.071,3.651c0,1.512-0.774,2.877-2.071,3.652l-13.541,8.092C29.999,36.9,27.225,37.666,24.4,37.666z
		 M24.4,11.75c-2.464,0-4.884,0.667-6.999,1.931L3.86,21.772c-0.688,0.411-1.098,1.134-1.098,1.935c0,0.802,0.41,1.524,1.098,1.936
		l13.541,8.092c4.229,2.526,9.766,2.528,13.997,0l13.541-8.092c0.687-0.411,1.097-1.134,1.097-1.936c0-0.801-0.41-1.523-1.097-1.935
		l-13.541-8.092C29.283,12.417,26.863,11.75,24.4,11.75z"/>
</g>
<g>
	<path fill="#B1AEA3" d="M24.399,31.147c-4.103,0-7.44-3.337-7.44-7.439s3.338-7.44,7.44-7.44s7.44,3.338,7.44,7.44
		S28.502,31.147,24.399,31.147z M24.399,18.268c-3,0-5.44,2.44-5.44,5.44c0,2.999,2.44,5.439,5.44,5.439s5.44-2.44,5.44-5.439
		C29.84,20.708,27.399,18.268,24.399,18.268z"/>
</g>
</svg>
