<?xml version="1.0" encoding="utf-8"?>
<!-- Generator: Adobe Illustrator 18.0.0, SVG Export Plug-In . SVG Version: 6.00 Build 0)  -->
<!DOCTYPE svg PUBLIC "-//W3C//DTD SVG 1.1//EN" "http://www.w3.org/Graphics/SVG/1.1/DTD/svg11.dtd">
<svg version="1.1" id="Layer_1" xmlns="http://www.w3.org/2000/svg" xmlns:xlink="http://www.w3.org/1999/xlink" x="0px" y="0px"
	 width="107px" height="63.219px" viewBox="0 0 107 63.219" enable-background="new 0 0 107 63.219" xml:space="preserve">
<g>
	<path fill="#B1AEA3" d="M58.3,51.058c-0.174,0-0.347-0.045-0.502-0.136L36.842,38.751c-0.478-0.277-0.641-0.889-0.362-1.366
		c0.277-0.478,0.888-0.64,1.366-0.362L58.3,48.902l45.705-26.561L69.048,2.158l-9.681,5.734c-0.477,0.282-1.09,0.125-1.37-0.351
		c-0.281-0.475-0.124-1.089,0.351-1.37L68.531,0.14c0.312-0.184,0.698-0.186,1.01-0.006L106.5,21.473
		c0.309,0.179,0.499,0.508,0.5,0.865s-0.189,0.687-0.497,0.866l-47.7,27.719C58.646,51.014,58.474,51.058,58.3,51.058z"/>
</g>
<g>
	<path fill="#B1AEA3" d="M74.358,27.835c-0.183,0-0.365-0.05-0.526-0.15l-12.98-8.036c-0.298-0.185-0.478-0.512-0.474-0.863
		c0.005-0.351,0.192-0.673,0.495-0.851l8.288-4.849c0.311-0.182,0.694-0.182,1.005-0.003l13.546,7.82
		c0.31,0.179,0.501,0.51,0.5,0.868s-0.192,0.688-0.504,0.866l-8.854,5.064C74.701,27.791,74.529,27.835,74.358,27.835z
		 M63.317,18.824l11.062,6.848l6.826-3.904l-11.536-6.66L63.317,18.824z"/>
</g>
<g>
	<path fill="#B1AEA3" d="M58.3,62.765c-0.175,0-0.349-0.046-0.505-0.137L28.108,45.27c-0.477-0.278-0.637-0.892-0.358-1.368
		c0.277-0.478,0.89-0.638,1.368-0.358l29.184,17.063L105,33.469v-11.13c0-0.552,0.447-1,1-1s1,0.448,1,1v11.706
		c0,0.356-0.189,0.686-0.497,0.865l-47.7,27.72C58.646,62.72,58.474,62.765,58.3,62.765z"/>
</g>
<g>
	<g>
		<path fill="#B1AEA3" d="M12.421,45.307c-0.142,0-0.283-0.03-0.417-0.091c-0.355-0.163-0.583-0.519-0.583-0.909v-13.73H2.075
			c-0.553,0-1-0.448-1-1V1.487c0-0.552,0.447-1,1-1h47.021c0.553,0,1,0.448,1,1v28.089c0,0.552-0.447,1-1,1H29.875L13.074,45.063
			C12.889,45.224,12.656,45.307,12.421,45.307z M3.075,28.577h9.346c0.553,0,1,0.448,1,1v12.547L28.85,28.819
			c0.182-0.157,0.414-0.243,0.653-0.243h18.593V2.487H3.075V28.577z"/>
	</g>
</g>
<g>
	<path fill="#B1AEA3" d="M41.82,10.933H9.351c-0.553,0-1-0.448-1-1s0.447-1,1-1h32.47c0.553,0,1,0.448,1,1
		S42.373,10.933,41.82,10.933z"/>
</g>
<g>
	<path fill="#B1AEA3" d="M36.64,20.253H9.351c-0.553,0-1-0.448-1-1s0.447-1,1-1H36.64c0.553,0,1,0.448,1,1
		S37.192,20.253,36.64,20.253z"/>
</g>
<g>
	<path fill="#B1AEA3" d="M58.3,62.765c-0.553,0-1-0.447-1-1V50.058c0-0.553,0.447-1,1-1s1,0.447,1,1v11.706
		C59.3,62.317,58.853,62.765,58.3,62.765z"/>
</g>
</svg>
