<?xml version="1.0" encoding="utf-8"?>
<!-- Generator: Adobe Illustrator 18.0.0, SVG Export Plug-In . SVG Version: 6.00 Build 0)  -->
<!DOCTYPE svg PUBLIC "-//W3C//DTD SVG 1.1//EN" "http://www.w3.org/Graphics/SVG/1.1/DTD/svg11.dtd">
<svg version="1.1" id="Layer_1" xmlns="http://www.w3.org/2000/svg" xmlns:xlink="http://www.w3.org/1999/xlink" x="0px" y="0px"
	 width="101px" height="64px" viewBox="0 0 101 64" enable-background="new 0 0 101 64" xml:space="preserve">
<g>
	<path fill="#B1AEA3" d="M100.437,23.752c0-1-0.029-0.441-0.069-0.55c-0.011-0.029-0.021-0.159-0.034-0.187
		c-0.049-0.102-0.108-0.25-0.188-0.331c-0.002-0.002-0.004-0.029-0.006-0.031c-0.06-0.059-0.127-0.125-0.202-0.168L62.977,1.141
		c-0.31-0.18-0.692-0.182-1.003-0.002L36.662,15.847c-0.478,0.278-0.64,0.889-0.362,1.366c0.277,0.477,0.889,0.639,1.367,0.362
		L62.479,3.156l34.963,20.185L51.735,49.904l-11.295-6.522c-0.481-0.277-1.09-0.112-1.366,0.366
		c-0.276,0.479-0.083,1.09,0.395,1.366l11.326,6.523v9.397l-16.562-9.547c-0.48-0.277-1.104-0.112-1.381,0.366
		c-0.276,0.479-0.12,1.09,0.359,1.366l18.03,10.412c0.023,0.013,0.048,0.019,0.072,0.03c0.027,0.013,0.053,0.023,0.082,0.034
		c0.111,0.041,0.226,0.069,0.343,0.069c0.117,0,0.231-0.028,0.343-0.069c0.029-0.011,0.057-0.022,0.085-0.035
		c0.025-0.012,0.051-0.017,0.075-0.031l47.879-27.721c0.308-0.179,0.676-0.508,0.676-0.864V23.752h-0.179H100.437z M52.794,61.027
		v-9.393l46-26.557v9.392L52.794,61.027z"/>
	<path fill="#B1AEA3" d="M75.699,24.891c0.157,0.091,0.329,0.134,0.499,0.134c0.346,0,0.682-0.179,0.867-0.5
		c0.276-0.479,0.112-1.09-0.366-1.366l-16.622-9.597c-0.478-0.277-1.09-0.113-1.366,0.366c-0.276,0.479-0.112,1.09,0.366,1.366
		L75.699,24.891z"/>
	<path fill="#B1AEA3" d="M50.4,19.427c-0.276,0.479-0.112,1.09,0.366,1.366l16.622,9.597c0.157,0.091,0.329,0.134,0.499,0.134
		c0.346,0,0.682-0.179,0.867-0.5c0.276-0.479,0.112-1.09-0.366-1.366L51.766,19.06C51.289,18.783,50.676,18.947,50.4,19.427z"/>
	<path fill="#B1AEA3" d="M47.249,27.983c-0.276,0.478-0.112,1.09,0.366,1.366l11.462,6.618c0.157,0.091,0.329,0.134,0.499,0.134
		c0.346,0,0.682-0.179,0.867-0.5c0.276-0.479,0.112-1.09-0.366-1.366l-11.462-6.618C48.135,27.34,47.525,27.504,47.249,27.983z"/>
	<path fill="#B1AEA3" d="M17.907,12.511C8.033,12.511,0,20.544,0,30.418s8.033,17.907,17.907,17.907s17.907-8.033,17.907-17.907
		S27.781,12.511,17.907,12.511z M17.907,46.325C9.136,46.325,2,39.19,2,30.418c0-8.771,7.136-15.907,15.907-15.907
		c8.771,0,15.907,7.136,15.907,15.907C33.814,39.19,26.678,46.325,17.907,46.325z"/>
	<path fill="#B1AEA3" d="M24.957,29.752h-6.163v-6.384c0-0.552-0.448-1-1-1s-1,0.448-1,1v6.384h-5.938c-0.552,0-1,0.448-1,1
		s0.448,1,1,1h5.938v5.717c0,0.553,0.448,1,1,1s1-0.447,1-1v-5.717h6.163c0.552,0,1-0.448,1-1S25.509,29.752,24.957,29.752z"/>
</g>
</svg>
