<?xml version="1.0" encoding="utf-8"?>
<!-- Generator: Adobe Illustrator 18.0.0, SVG Export Plug-In . SVG Version: 6.00 Build 0)  -->
<!DOCTYPE svg PUBLIC "-//W3C//DTD SVG 1.1//EN" "http://www.w3.org/Graphics/SVG/1.1/DTD/svg11.dtd">
<svg version="1.1" id="Layer_1" xmlns="http://www.w3.org/2000/svg" xmlns:xlink="http://www.w3.org/1999/xlink" x="0px" y="0px"
	 width="100.075px" height="72.717px" viewBox="0 0 100.075 72.717" enable-background="new 0 0 100.075 72.717"
	 xml:space="preserve">
<g>
	<g>
		<path fill="#B1AEA3" d="M7.941,50.689c-0.172,0-0.345-0.044-0.499-0.133c-0.31-0.179-0.501-0.51-0.501-0.867V37.534
			c0-0.356,0.189-0.686,0.497-0.864L63.601,4.03c0.309-0.179,0.691-0.181,1.002-0.002c0.31,0.178,0.501,0.509,0.501,0.867v12.156
			c0,0.356-0.189,0.686-0.497,0.865L8.444,50.553C8.289,50.644,8.115,50.689,7.941,50.689z M8.941,38.109v9.843l54.162-31.477V6.633
			L8.941,38.109z"/>
	</g>
	<g>
		<path fill="#B1AEA3" d="M7.941,50.689c-0.18,0-0.359-0.049-0.519-0.145l-6.61-4.006c-0.299-0.182-0.481-0.506-0.481-0.855V33.527
			c0-0.361,0.194-0.694,0.509-0.871c0.316-0.177,0.7-0.172,1.01,0.016l6.61,4.006c0.299,0.182,0.481,0.506,0.481,0.855v12.155
			c0,0.361-0.194,0.694-0.509,0.871C8.279,50.646,8.11,50.689,7.941,50.689z M2.331,45.12l4.61,2.794v-9.816l-4.61-2.795V45.12z"/>
	</g>
	<g>
		<path fill="#B1AEA3" d="M7.941,38.534c-0.18,0-0.359-0.048-0.519-0.145l-6.61-4.007c-0.302-0.184-0.485-0.513-0.481-0.866
			s0.194-0.679,0.5-0.855L57.176,0.134c0.316-0.182,0.706-0.178,1.019,0.011l6.428,3.895c0.302,0.183,0.484,0.512,0.481,0.865
			s-0.192,0.678-0.497,0.855L8.444,38.398C8.288,38.489,8.115,38.534,7.941,38.534z M3.295,33.547l4.657,2.823L62.145,4.877
			l-4.481-2.715L3.295,33.547z"/>
	</g>
	<g>
		<path fill="#B1AEA3" d="M42.582,72.193c-0.172,0-0.345-0.044-0.499-0.133c-0.31-0.179-0.501-0.51-0.501-0.867V59.038
			c0-0.356,0.189-0.686,0.497-0.864l56.162-32.639c0.309-0.18,0.691-0.18,1.002-0.002c0.31,0.178,0.501,0.509,0.501,0.867v12.155
			c0,0.356-0.189,0.686-0.497,0.864L43.085,72.057C42.93,72.148,42.756,72.193,42.582,72.193z M43.582,59.613v9.843l54.162-31.477
			v-9.842L43.582,59.613z"/>
	</g>
	<g>
		<path fill="#B1AEA3" d="M76.965,31.678c-0.17,0-0.342-0.043-0.499-0.134L52.353,17.623c-0.479-0.276-0.643-0.888-0.366-1.366
			c0.276-0.479,0.889-0.642,1.366-0.366l24.113,13.921c0.479,0.276,0.643,0.888,0.366,1.366
			C77.646,31.499,77.311,31.678,76.965,31.678z"/>
	</g>
	<g>
		<path fill="#B1AEA3" d="M60.93,40.729c-0.17,0-0.342-0.043-0.499-0.134L36.317,26.674c-0.479-0.276-0.643-0.888-0.366-1.366
			c0.276-0.479,0.889-0.643,1.366-0.366l24.113,13.921c0.479,0.276,0.643,0.888,0.366,1.366
			C61.611,40.549,61.275,40.729,60.93,40.729z"/>
	</g>
	<g>
		<path fill="#B1AEA3" d="M43.09,51.076c-0.17,0-0.342-0.043-0.499-0.134L18.479,37.02c-0.479-0.276-0.643-0.888-0.366-1.366
			c0.276-0.48,0.888-0.643,1.366-0.366l24.112,13.922c0.479,0.276,0.643,0.888,0.366,1.366
			C43.771,50.897,43.436,51.076,43.09,51.076z"/>
	</g>
	<g>
		<path fill="#B1AEA3" d="M42.582,72.193c-0.18,0-0.359-0.049-0.519-0.145l-6.61-4.006c-0.299-0.182-0.481-0.506-0.481-0.855V55.032
			c0-0.361,0.194-0.694,0.509-0.871c0.316-0.178,0.701-0.171,1.01,0.016l6.61,4.006c0.299,0.182,0.481,0.506,0.481,0.855v12.155
			c0,0.361-0.194,0.694-0.509,0.871C42.92,72.15,42.751,72.193,42.582,72.193z M36.972,66.624l4.61,2.794v-9.816l-4.61-2.794V66.624
			z"/>
	</g>
	<g>
		<path fill="#B1AEA3" d="M42.582,60.038c-0.18,0-0.359-0.048-0.519-0.145l-6.61-4.006c-0.302-0.184-0.485-0.513-0.481-0.866
			s0.194-0.679,0.5-0.855l56.345-32.528c0.316-0.182,0.706-0.178,1.019,0.011l6.428,3.896c0.302,0.183,0.484,0.511,0.481,0.864
			s-0.192,0.678-0.497,0.855L43.085,59.902C42.929,59.993,42.756,60.038,42.582,60.038z M37.936,55.052l4.657,2.822l54.192-31.493
			l-4.481-2.716L37.936,55.052z"/>
	</g>
</g>
<g>
	<g>
		<path fill="#B1AEA3" d="M55.588,55.644L55.588,55.644c-0.905,0-1.646,0.741-1.646,1.646l0,0c0,0.905,0.741,1.646,1.646,1.646l0,0
			c0.905,0,1.646-0.741,1.646-1.646l0,0C57.234,56.385,56.493,55.644,55.588,55.644z"/>
	</g>
	<g>
		<path fill="#B1AEA3" d="M73.847,45.541L73.847,45.541c-0.905,0-1.646,0.741-1.646,1.646l0,0c0,0.905,0.741,1.646,1.646,1.646l0,0
			c0.905,0,1.646-0.741,1.646-1.646l0,0C75.493,46.281,74.752,45.541,73.847,45.541z"/>
	</g>
	<g>
		<path fill="#B1AEA3" d="M89.125,36.052L89.125,36.052c-0.905,0-1.646,0.741-1.646,1.646l0,0c0,0.905,0.741,1.646,1.646,1.646l0,0
			c0.905,0,1.646-0.741,1.646-1.646l0,0C90.771,36.793,90.03,36.052,89.125,36.052z"/>
	</g>
</g>
</svg>
