<?xml version="1.0" encoding="utf-8"?>
<!-- Generator: Adobe Illustrator 18.0.0, SVG Export Plug-In . SVG Version: 6.00 Build 0)  -->
<!DOCTYPE svg PUBLIC "-//W3C//DTD SVG 1.1//EN" "http://www.w3.org/Graphics/SVG/1.1/DTD/svg11.dtd">
<svg version="1.1" id="Layer_1" xmlns="http://www.w3.org/2000/svg" xmlns:xlink="http://www.w3.org/1999/xlink" x="0px" y="0px"
	 width="95.333px" height="63.667px" viewBox="0 0 95.333 63.667" enable-background="new 0 0 95.333 63.667" xml:space="preserve">
<g>
	<path fill="#B1AEA3" d="M45.899,51.387c-0.173,0-0.346-0.045-0.501-0.135l-11.25-6.521c-0.478-0.277-0.641-0.889-0.364-1.366
		c0.277-0.478,0.89-0.641,1.367-0.364l10.748,6.229L91.604,22.67l-9.307-5.373c-0.479-0.276-0.643-0.888-0.366-1.366
		c0.276-0.478,0.889-0.642,1.366-0.366L94.1,21.801c0.309,0.179,0.499,0.508,0.5,0.865c0.001,0.356-0.189,0.687-0.498,0.865
		l-47.7,27.72C46.247,51.342,46.073,51.387,45.899,51.387z"/>
</g>
<g>
	<path fill="#B1AEA3" d="M40.067,12.068c-0.343,0-0.677-0.177-0.863-0.493c-0.28-0.477-0.121-1.089,0.355-1.369l16.574-9.74
		c0.311-0.183,0.696-0.183,1.007-0.004L63.614,4.2c0.479,0.276,0.643,0.888,0.366,1.366c-0.277,0.479-0.891,0.641-1.366,0.366
		l-5.97-3.447l-16.072,9.445C40.414,12.024,40.239,12.068,40.067,12.068z"/>
</g>
<g>
	<path fill="#B1AEA3" d="M45.899,63.093c-0.175,0-0.35-0.046-0.505-0.137L25.413,51.25c-0.477-0.279-0.637-0.893-0.357-1.369
		s0.893-0.636,1.368-0.357l19.478,11.411L92.6,33.798V22.667c0-0.553,0.447-1,1-1s1,0.447,1,1v11.706
		c0,0.356-0.189,0.686-0.497,0.864l-47.701,27.72C46.247,63.048,46.073,63.093,45.899,63.093z"/>
</g>
<g>
	<path fill="#B1AEA3" d="M45.899,63.093c-0.552,0-1-0.447-1-1V50.387c0-0.553,0.448-1,1-1s1,0.447,1,1v11.706
		C46.899,62.646,46.452,63.093,45.899,63.093z"/>
</g>
<g>
	<path fill="#B1AEA3" d="M80.713,20.368c-0.178,0-0.354-0.048-0.511-0.14L60.938,8.793c-0.253-0.151-0.428-0.405-0.476-0.696
		c-0.049-0.291,0.034-0.588,0.226-0.812l5.88-6.9c0.314-0.37,0.851-0.461,1.271-0.212l4.188,2.486
		c1.041-1.188,2.566-1.896,4.175-1.896c0.99,0,1.966,0.269,2.821,0.775c1.27,0.755,2.171,1.959,2.536,3.392
		c0.281,1.104,0.219,2.241-0.17,3.286l4.187,2.484c0.466,0.277,0.626,0.874,0.362,1.347l-4.352,7.809
		c-0.131,0.236-0.353,0.409-0.612,0.479C80.888,20.356,80.8,20.368,80.713,20.368z M62.979,7.679L80.34,17.983l3.377-6.061
		l-4.132-2.452c-0.228-0.136-0.393-0.356-0.458-0.613S79.101,8.328,79.235,8.1c0.481-0.811,0.618-1.761,0.385-2.677
		c-0.233-0.915-0.808-1.685-1.619-2.165c-0.546-0.325-1.169-0.496-1.8-0.496c-1.244,0-2.411,0.663-3.044,1.73
		c-0.136,0.228-0.356,0.393-0.613,0.458c-0.256,0.067-0.529,0.026-0.758-0.108l-4.243-2.52L62.979,7.679z"/>
</g>
<g>
	<path fill="#B1AEA3" d="M70.638,24.35c-0.17,0-0.342-0.043-0.499-0.134l-16.622-9.597c-0.479-0.276-0.643-0.888-0.366-1.366
		s0.888-0.644,1.366-0.366l16.622,9.597c0.479,0.276,0.643,0.888,0.366,1.366C71.319,24.17,70.983,24.35,70.638,24.35z"/>
</g>
<g>
	<path fill="#B1AEA3" d="M61.447,29.849c-0.17,0-0.342-0.043-0.499-0.134l-16.622-9.597c-0.479-0.276-0.642-0.888-0.366-1.366
		c0.276-0.478,0.886-0.644,1.366-0.366l16.622,9.597c0.479,0.276,0.643,0.888,0.366,1.366
		C62.129,29.669,61.793,29.849,61.447,29.849z"/>
</g>
<g>
	<path fill="#B1AEA3" d="M51.947,35.229c-0.17,0-0.342-0.043-0.499-0.134l-6.312-3.645c-0.479-0.276-0.642-0.888-0.366-1.366
		s0.888-0.644,1.366-0.366l6.312,3.645c0.479,0.276,0.643,0.888,0.366,1.366C52.629,35.051,52.293,35.229,51.947,35.229z"/>
</g>
<g>
	<path fill="#B1AEA3" d="M17.907,42.861C8.033,42.861,0,34.829,0,24.955S8.033,7.048,17.907,7.048s17.907,8.033,17.907,17.907
		S27.781,42.861,17.907,42.861z M17.907,9.048C9.136,9.048,2,16.184,2,24.955c0,8.771,7.136,15.906,15.907,15.906
		c8.771,0,15.907-7.136,15.907-15.906C33.814,16.184,26.678,9.048,17.907,9.048z"/>
</g>
<g>
	<path fill="#B1AEA3" d="M16.254,30.995c-0.256,0-0.512-0.098-0.707-0.293l-5.075-5.074c-0.391-0.391-0.391-1.023,0-1.414
		s1.023-0.391,1.414,0l4.368,4.367l9.375-9.374c0.391-0.391,1.023-0.391,1.414,0s0.391,1.023,0,1.414L16.961,30.702
		C16.766,30.897,16.51,30.995,16.254,30.995z"/>
</g>
</svg>
