<?xml version="1.0" encoding="utf-8"?>
<!-- Generator: Adobe Illustrator 18.0.0, SVG Export Plug-In . SVG Version: 6.00 Build 0)  -->
<!DOCTYPE svg PUBLIC "-//W3C//DTD SVG 1.1//EN" "http://www.w3.org/Graphics/SVG/1.1/DTD/svg11.dtd">
<svg version="1.1" id="Layer_1" xmlns="http://www.w3.org/2000/svg" xmlns:xlink="http://www.w3.org/1999/xlink" x="0px" y="0px"
	 width="95.732px" height="51.426px" viewBox="0 0 95.732 51.426" enable-background="new 0 0 95.732 51.426" xml:space="preserve">
<g>
	<path fill="#B1AEA3" d="M46.933,51.059c-0.173,0-0.345-0.045-0.5-0.134l-6.893-3.979c-0.479-0.276-0.643-0.888-0.366-1.366
		s0.889-0.643,1.366-0.366l6.391,3.689l45.707-26.562L57.681,2.159L34.789,15.793c-0.474,0.283-1.088,0.127-1.371-0.348
		c-0.282-0.475-0.127-1.088,0.348-1.371L57.161,0.141c0.312-0.185,0.698-0.186,1.012-0.007l36.96,21.339
		c0.309,0.179,0.499,0.508,0.5,0.865c0.001,0.356-0.189,0.687-0.497,0.865l-47.701,27.72C47.279,51.014,47.106,51.059,46.933,51.059
		z"/>
</g>
<g>
	<path fill="#B1AEA3" d="M70.992,24.318c-0.17,0-0.342-0.043-0.499-0.134l-16.622-9.597c-0.479-0.276-0.643-0.888-0.366-1.366
		s0.888-0.643,1.366-0.366l16.622,9.597c0.479,0.276,0.643,0.888,0.366,1.366C71.674,24.139,71.338,24.318,70.992,24.318z"/>
</g>
<g>
	<path fill="#B1AEA3" d="M62.682,29.816c-0.17,0-0.342-0.043-0.499-0.134L45.56,20.086c-0.479-0.276-0.643-0.888-0.366-1.366
		s0.889-0.643,1.366-0.366l16.623,9.597c0.479,0.276,0.643,0.888,0.366,1.366C63.363,29.637,63.027,29.816,62.682,29.816z"/>
</g>
<g>
	<path fill="#B1AEA3" d="M54.37,35.394c-0.17,0-0.342-0.043-0.499-0.134l-7.194-4.153c-0.479-0.276-0.643-0.888-0.366-1.366
		s0.889-0.643,1.366-0.366l7.194,4.153c0.479,0.276,0.643,0.888,0.366,1.366C55.052,35.214,54.716,35.394,54.37,35.394z"/>
</g>
<g>
	<path fill="#B1AEA3" d="M19.237,38.737c-0.401,0-0.779-0.243-0.933-0.64L10.417,17.66L2.529,38.098
		c-0.199,0.516-0.776,0.771-1.293,0.572c-0.515-0.198-0.771-0.777-0.572-1.293l8.062-20.889c0.271-0.705,0.936-1.16,1.691-1.16
		s1.42,0.455,1.692,1.161l8.061,20.888c0.199,0.516-0.058,1.095-0.572,1.293C19.479,38.716,19.357,38.737,19.237,38.737z"/>
</g>
<g>
	<path fill="#B1AEA3" d="M16.617,31.744H4.216c-0.553,0-1-0.447-1-1s0.447-1,1-1h12.401c0.553,0,1,0.447,1,1
		S17.17,31.744,16.617,31.744z"/>
</g>
<g>
	<g>
		<g>
			<g>
				<path fill="#B1AEA3" d="M36.922,39.103c-0.553,0-1-0.447-1-1V24.169c0-0.553,0.447-1,1-1s1,0.447,1,1v13.934
					C37.922,38.655,37.475,39.103,36.922,39.103z"/>
			</g>
		</g>
	</g>
	<g>
		<path fill="#B1AEA3" d="M30.583,38.931c-4.047,0-7.339-3.443-7.339-7.677s3.292-7.678,7.339-7.678s7.339,3.444,7.339,7.678
			S34.63,38.931,30.583,38.931z M30.583,25.576c-2.944,0-5.339,2.547-5.339,5.678c0,3.13,2.395,5.677,5.339,5.677
			s5.339-2.547,5.339-5.677C35.922,28.123,33.527,25.576,30.583,25.576z"/>
	</g>
</g>
</svg>
