<?xml version="1.0" encoding="utf-8"?>
<!-- Generator: Adobe Illustrator 18.0.0, SVG Export Plug-In . SVG Version: 6.00 Build 0)  -->
<!DOCTYPE svg PUBLIC "-//W3C//DTD SVG 1.1//EN" "http://www.w3.org/Graphics/SVG/1.1/DTD/svg11.dtd">
<svg version="1.1" id="Layer_1" xmlns="http://www.w3.org/2000/svg" xmlns:xlink="http://www.w3.org/1999/xlink" x="0px" y="0px"
	 width="447.293px" height="30px" viewBox="0 0 447.293 30" enable-background="new 0 0 447.293 30" xml:space="preserve">
<g>
	<g>
		<path fill="#FFFFFF" d="M223.179,7.301h1.738v13.796h8.669v1.606h-10.407V7.301z"/>
		<path fill="#FFFFFF" d="M248.479,8.885h-9.395v5.259h8.405v1.585h-8.405v5.391h9.505v1.584h-11.243V7.301h11.133V8.885z"/>
		<path fill="#FFFFFF" d="M258.159,14.166c3.433,0.748,5.017,2.002,5.017,4.379c0,2.662-2.2,4.378-5.259,4.378
			c-2.442,0-4.444-0.813-6.293-2.464l1.078-1.276c1.606,1.452,3.146,2.179,5.281,2.179c2.068,0,3.433-1.078,3.433-2.641
			c0-1.452-0.771-2.267-4.005-2.948c-3.543-0.771-5.171-1.915-5.171-4.467c0-2.465,2.135-4.225,5.061-4.225
			c2.244,0,3.851,0.638,5.413,1.892l-1.013,1.343c-1.43-1.166-2.86-1.672-4.444-1.672c-2.002,0-3.278,1.1-3.278,2.508
			C253.979,12.626,254.771,13.439,258.159,14.166z"/>
		<path fill="#FFFFFF" d="M272.547,14.166c3.433,0.748,5.017,2.002,5.017,4.379c0,2.662-2.2,4.378-5.259,4.378
			c-2.442,0-4.444-0.813-6.293-2.464l1.078-1.276c1.606,1.452,3.146,2.179,5.281,2.179c2.068,0,3.433-1.078,3.433-2.641
			c0-1.452-0.771-2.267-4.005-2.948c-3.543-0.771-5.171-1.915-5.171-4.467c0-2.465,2.135-4.225,5.061-4.225
			c2.244,0,3.851,0.638,5.413,1.892l-1.013,1.343c-1.43-1.166-2.86-1.672-4.444-1.672c-2.002,0-3.278,1.1-3.278,2.508
			C268.366,12.626,269.158,13.439,272.547,14.166z"/>
		<path fill="#FFFFFF" d="M288.805,22.967c-4.687,0-7.833-3.674-7.833-7.942s3.19-7.987,7.877-7.987s7.833,3.674,7.833,7.943
			C296.682,19.249,293.491,22.967,288.805,22.967z M288.805,8.644c-3.521,0-6.028,2.816-6.028,6.337s2.552,6.381,6.072,6.381
			s6.029-2.816,6.029-6.337S292.325,8.644,288.805,8.644z"/>
		<path fill="#FFFFFF" d="M312.235,7.301h1.694v15.402h-1.386l-9.946-12.63v12.63h-1.693V7.301h1.628l9.703,12.344V7.301z"/>
		<path fill="#FFFFFF" d="M331.44,17.269h-3.74v5.435h-1.738V7.301h5.765c3.477,0,5.765,1.849,5.765,4.907
			C337.491,15.552,334.719,17.269,331.44,17.269z M331.595,8.907H327.7v6.777h3.806c2.553,0,4.225-1.364,4.225-3.411
			C335.73,10.052,334.081,8.907,331.595,8.907z"/>
		<path fill="#FFFFFF" d="M341.186,7.301h1.738v13.796h8.669v1.606h-10.407V7.301z"/>
		<path fill="#FFFFFF" d="M369.699,22.703h-1.87l-1.805-4.07h-8.383l-1.826,4.07h-1.782l7.019-15.513h1.628L369.699,22.703z
			 M361.844,9.215l-3.521,7.855h7.02L361.844,9.215z"/>
		<path fill="#FFFFFF" d="M384.593,7.301h1.694v15.402h-1.386l-9.946-12.63v12.63h-1.693V7.301h1.628l9.703,12.344V7.301z"/>
		<path fill="#FFFFFF" d="M402.5,7.301h1.694v15.402h-1.386l-9.945-12.63v12.63h-1.694V7.301h1.628l9.703,12.344V7.301z"/>
		<path fill="#FFFFFF" d="M410.99,7.301v15.402h-1.738V7.301H410.99z"/>
		<path fill="#FFFFFF" d="M427.382,7.301h1.694v15.402h-1.386l-9.946-12.63v12.63h-1.693V7.301h1.628l9.703,12.344V7.301z"/>
		<path fill="#FFFFFF" d="M441.109,22.967c-4.841,0-7.833-3.521-7.833-7.942c0-4.247,3.103-7.987,7.724-7.987
			c2.596,0,4.202,0.748,5.742,2.046l-1.122,1.32c-1.188-1.034-2.508-1.76-4.687-1.76c-3.41,0-5.853,2.882-5.853,6.337
			c0,3.696,2.354,6.425,6.095,6.425c1.76,0,3.389-0.683,4.444-1.541v-3.828h-4.687v-1.562h6.359v6.14
			C445.862,21.889,443.706,22.967,441.109,22.967z"/>
	</g>
	<g>
		<g>
			<rect x="200.011" fill="#FFFFFF" width="1" height="30"/>
		</g>
	</g>
	<polyline fill="#FFFFFF" points="0.719,19.906 0,19.906 0,26.283 0.719,26.283 	"/>
	<polygon fill="#FFFFFF" points="7.964,19.906 8.665,19.906 8.665,26.283 8.091,26.283 3.974,21.054 3.974,26.283 3.272,26.283 
		3.272,19.906 3.946,19.906 7.964,25.017 	"/>
	<g>
		<path fill="#FFFFFF" d="M13.441,22.748c1.421,0.31,2.077,0.829,2.077,1.812c0,1.103-0.911,1.814-2.177,1.814
			c-1.011,0-1.84-0.337-2.606-1.02l0.447-0.528c0.665,0.6,1.302,0.901,2.186,0.901c0.856,0,1.421-0.446,1.421-1.094
			c0-0.601-0.318-0.938-1.658-1.22c-1.467-0.319-2.141-0.793-2.141-1.849c0-1.02,0.884-1.75,2.096-1.75
			c0.929,0,1.594,0.265,2.241,0.784l-0.419,0.555c-0.592-0.482-1.185-0.692-1.841-0.692c-0.829,0-1.357,0.456-1.357,1.039
			C11.71,22.11,12.038,22.447,13.441,22.748"/>
	</g>
	<polygon fill="#FFFFFF" points="19.948,26.283 19.219,26.283 19.219,20.571 17.077,20.571 17.077,19.906 22.088,19.906 
		22.088,20.571 19.948,20.571 	"/>
	<g>
		<path fill="#FFFFFF" d="M26.81,20.571h-1.969v2.587H26.8c0.957,0,1.64-0.491,1.64-1.32C28.44,21.044,27.839,20.571,26.81,20.571
			 M28.513,26.283l-1.85-2.478h-1.822v2.478h-0.719v-6.377h2.742c1.403,0,2.305,0.756,2.305,1.904c0,1.066-0.729,1.685-1.731,1.867
			l1.959,2.606H28.513z"/>
		<path fill="#FFFFFF" d="M36.605,23.559c0,1.859-1.066,2.824-2.66,2.824c-1.576,0-2.651-0.965-2.651-2.769v-3.708h0.72v3.663
			c0,1.375,0.728,2.149,1.949,2.149c1.175,0,1.923-0.71,1.923-2.104v-3.708h0.719V23.559z"/>
		<path fill="#FFFFFF" d="M41.91,26.392c-1.841,0-3.198-1.448-3.198-3.289c0-1.822,1.348-3.307,3.225-3.307
			c1.157,0,1.849,0.41,2.487,1.011l-0.492,0.529c-0.538-0.51-1.138-0.876-2.004-0.876c-1.412,0-2.469,1.14-2.469,2.625
			s1.066,2.641,2.469,2.641c0.875,0,1.449-0.336,2.059-0.919l0.474,0.464C43.796,25.945,43.067,26.392,41.91,26.392"/>
	</g>
	<polygon fill="#FFFFFF" points="48.819,26.283 48.09,26.283 48.09,20.571 45.949,20.571 45.949,19.906 50.959,19.906 
		50.959,20.571 48.819,20.571 	"/>
	<rect x="53.057" y="19.906" fill="#FFFFFF" width="0.719" height="6.377"/>
	<g>
		<path fill="#FFFFFF" d="M59.29,20.46c-1.457,0-2.496,1.167-2.496,2.625c0,1.457,1.056,2.641,2.514,2.641s2.496-1.166,2.496-2.623
			C61.804,21.645,60.747,20.46,59.29,20.46 M59.29,26.392c-1.94,0-3.244-1.522-3.244-3.289s1.321-3.307,3.262-3.307
			c1.941,0,3.243,1.521,3.243,3.289C62.551,24.852,61.23,26.392,59.29,26.392"/>
	</g>
	<polygon fill="#FFFFFF" points="69.451,19.906 70.151,19.906 70.151,26.283 69.578,26.283 65.46,21.054 65.46,26.283 
		64.759,26.283 64.759,19.906 65.433,19.906 69.451,25.017 	"/>
	<path fill="#FFFFFF" d="M75.329,20.698l-1.458,3.253h2.906L75.329,20.698z M78.581,26.283h-0.774l-0.747-1.686h-3.471l-0.756,1.686
		h-0.739l2.907-6.422h0.674L78.581,26.283z"/>
	<polygon fill="#FFFFFF" points="80.525,19.906 81.244,19.906 81.244,25.618 84.834,25.618 84.834,26.283 80.525,26.283 	"/>
	<g>
		<path fill="#FFFFFF" d="M92.599,20.57h-1.612v2.806h1.576c1.056,0,1.749-0.565,1.749-1.412
			C94.312,21.044,93.629,20.57,92.599,20.57 M92.536,24.032h-1.549v2.251h-0.72v-6.378h2.387c1.439,0,2.387,0.766,2.387,2.032
			C95.041,23.322,93.893,24.032,92.536,24.032"/>
		<path fill="#FFFFFF" d="M99.726,20.571h-1.968v2.587h1.958c0.957,0,1.641-0.491,1.641-1.32
			C101.357,21.044,100.756,20.571,99.726,20.571 M101.429,26.283l-1.849-2.478h-1.822v2.478h-0.72v-6.377h2.743
			c1.402,0,2.304,0.756,2.304,1.904c0,1.066-0.728,1.685-1.731,1.867l1.959,2.606H101.429z"/>
	</g>
	<path fill="#FFFFFF" d="M106.999,20.698l-1.459,3.253h2.907L106.999,20.698z M110.251,26.283h-0.774l-0.748-1.686h-3.471
		l-0.756,1.686h-0.738l2.906-6.422h0.674L110.251,26.283z"/>
	<g>
		<path fill="#FFFFFF" d="M114.735,26.392c-1.84,0-3.198-1.448-3.198-3.289c0-1.822,1.349-3.307,3.225-3.307
			c1.157,0,1.85,0.41,2.488,1.011l-0.493,0.529c-0.537-0.51-1.138-0.876-2.004-0.876c-1.412,0-2.468,1.14-2.468,2.625
			s1.065,2.641,2.468,2.641c0.874,0,1.449-0.336,2.059-0.919l0.474,0.464C116.62,25.945,115.891,26.392,114.735,26.392"/>
	</g>
	<polygon fill="#FFFFFF" points="121.644,26.283 120.916,26.283 120.916,20.571 118.775,20.571 118.775,19.906 123.785,19.906 
		123.785,20.571 121.644,20.571 	"/>
	<rect x="125.882" y="19.906" fill="#FFFFFF" width="0.721" height="6.377"/>
	<path fill="#FFFFFF" d="M132.069,26.392c-1.841,0-3.198-1.448-3.198-3.289c0-1.822,1.349-3.307,3.225-3.307
		c1.157,0,1.85,0.41,2.488,1.011l-0.493,0.529c-0.537-0.51-1.138-0.876-2.004-0.876c-1.412,0-2.468,1.14-2.468,2.625
		s1.065,2.641,2.468,2.641c0.874,0,1.449-0.336,2.059-0.919l0.474,0.464C133.954,25.945,133.225,26.392,132.069,26.392"/>
	<polygon fill="#FFFFFF" points="141.173,20.562 137.283,20.562 137.283,22.74 140.763,22.74 140.763,23.395 137.283,23.395 
		137.283,25.627 141.218,25.627 141.218,26.283 136.563,26.283 136.563,19.906 141.173,19.906 	"/>
	<g>
		<path fill="#FFFFFF" d="M149.731,26.392c-2.004,0-3.243-1.458-3.243-3.289c0-1.759,1.284-3.307,3.198-3.307
			c1.075,0,1.739,0.31,2.377,0.847l-0.464,0.547c-0.491-0.429-1.039-0.73-1.941-0.73c-1.412,0-2.423,1.195-2.423,2.625
			c0,1.53,0.974,2.66,2.524,2.66c0.729,0,1.402-0.283,1.84-0.637v-1.586h-1.941v-0.647h2.633v2.542
			C151.699,25.945,150.807,26.392,149.731,26.392"/>
		<path fill="#FFFFFF" d="M159.81,23.559c0,1.859-1.066,2.824-2.66,2.824c-1.576,0-2.651-0.965-2.651-2.769v-3.708h0.72v3.663
			c0,1.375,0.729,2.149,1.95,2.149c1.174,0,1.922-0.71,1.922-2.104v-3.708h0.719V23.559z"/>
	</g>
	<rect x="162.263" y="19.906" fill="#FFFFFF" width="0.721" height="6.377"/>
	<g>
		<path fill="#FFFFFF" d="M167.75,20.571h-1.495v5.047h1.495c1.612,0,2.642-1.093,2.642-2.514
			C170.392,21.682,169.362,20.571,167.75,20.571 M167.75,26.283h-2.214v-6.377h2.214c2.004,0,3.389,1.375,3.389,3.179
			S169.754,26.283,167.75,26.283"/>
	</g>
	<polygon fill="#FFFFFF" points="177.955,20.562 174.065,20.562 174.065,22.74 177.545,22.74 177.545,23.395 174.065,23.395 
		174.065,25.627 178,25.627 178,26.283 173.345,26.283 173.345,19.906 177.955,19.906 	"/>
	<g>
		<path fill="#FFFFFF" d="M8.485,13.287c-0.094-0.235-0.833-1.935-0.96-2.218H3.152c-0.093,0.188-0.865,1.983-0.958,2.218H0.133
			C0.258,13.005,4.552,2.905,4.631,2.733h1.4c0.063,0.157,4.373,10.161,4.547,10.554H8.485z M5.324,5.863
			C5.15,6.256,3.97,8.945,3.861,9.229h2.925C6.692,9.024,5.465,6.225,5.324,5.863"/>
		<path fill="#FFFFFF" d="M18.476,2.543c1.762,0,3.13,0.818,3.996,1.746c-0.142,0.142-1.149,1.18-1.353,1.369
			c-0.566-0.614-1.416-1.227-2.643-1.227c-1.935,0-3.539,1.604-3.539,3.617c0,1.966,1.588,3.602,3.539,3.602
			c1.07,0,2.013-0.518,2.659-1.257c0.172,0.172,1.18,1.179,1.337,1.337c-0.85,0.912-2.25,1.808-3.996,1.808
			c-2.989,0-5.521-2.375-5.521-5.49C12.955,4.95,15.456,2.543,18.476,2.543"/>
	</g>
	<polygon fill="#FFFFFF" points="32.698,2.795 32.698,7.12 27.931,7.12 27.931,2.795 26.028,2.795 26.028,13.288 27.931,13.288 
		27.931,8.993 32.698,8.993 32.698,13.288 34.616,13.288 34.616,2.795 	"/>
	<rect x="39.21" y="2.794" fill="#FFFFFF" width="1.919" height="10.493"/>
	<polygon fill="#FFFFFF" points="45.675,2.795 45.675,13.288 53.714,13.288 53.714,11.447 47.563,11.447 47.563,8.915 52.517,8.915 
		52.517,7.074 47.563,7.074 47.563,4.636 53.76,4.636 53.76,2.795 	"/>
	<g>
		<path fill="#FFFFFF" d="M62.522,13.413h-1.369c-0.173-0.504-3.979-10.02-4.216-10.618h2.062c0.188,0.503,2.674,6.952,2.879,7.488
			c0.204-0.551,2.689-7,2.846-7.488h2.029C66.565,3.283,62.696,12.989,62.522,13.413"/>
	</g>
	<polygon fill="#FFFFFF" points="70.153,2.795 70.153,13.288 78.191,13.288 78.191,11.447 72.04,11.447 72.04,8.915 76.995,8.915 
		76.995,7.074 72.04,7.074 72.04,4.636 78.238,4.636 78.238,2.795 	"/>
	<polygon fill="#FFFFFF" points="87.787,2.795 87.787,4.636 90.839,4.636 90.839,13.288 92.773,13.288 92.773,4.636 95.73,4.636 
		95.73,2.795 	"/>
	<polygon fill="#FFFFFF" points="105.877,2.795 105.877,7.12 101.112,7.12 101.112,2.795 99.207,2.795 99.207,13.288 
		101.112,13.288 101.112,8.993 105.877,8.993 105.877,13.288 107.796,13.288 107.796,2.795 	"/>
	<polygon fill="#FFFFFF" points="112.265,2.795 112.265,13.288 120.303,13.288 120.303,11.447 114.152,11.447 114.152,8.915 
		119.107,8.915 119.107,7.074 114.152,7.074 114.152,4.636 120.35,4.636 120.35,2.795 	"/>
	<path fill="#FFFFFF" d="M135.877,2.543c1.761,0,3.13,0.818,3.996,1.746c-0.142,0.142-1.149,1.18-1.354,1.369
		c-0.566-0.614-1.415-1.227-2.642-1.227c-1.935,0-3.539,1.604-3.539,3.617c0,1.966,1.588,3.602,3.539,3.602
		c1.07,0,2.013-0.518,2.659-1.257c0.172,0.172,1.18,1.179,1.337,1.337c-0.85,0.912-2.25,1.808-3.996,1.808
		c-2.989,0-5.521-2.375-5.521-5.49C130.356,4.95,132.857,2.543,135.877,2.543"/>
	<path fill="#FFFFFF" d="M148.037,13.538c-3.051,0-5.505-2.454-5.505-5.49c0-3.051,2.454-5.505,5.49-5.505
		c3.051,0,5.505,2.454,5.505,5.505C153.527,11.084,151.073,13.538,148.037,13.538 M148.022,4.399c-1.966,0-3.524,1.621-3.524,3.649
		c0,2.03,1.558,3.634,3.539,3.634c1.983,0,3.54-1.604,3.54-3.634C151.577,6.02,150.003,4.399,148.022,4.399"/>
	<path fill="#FFFFFF" d="M163.816,13.287c-0.205-0.33-2.061-3.413-2.297-3.806h-2.548v3.806h-1.888V2.795h5.538
		c1.918,0,3.334,1.479,3.334,3.367c0,1.557-1.101,2.783-2.281,3.082c0.221,0.347,2.265,3.697,2.501,4.043H163.816z M162.416,4.636
		h-3.445v3.021h3.46c0.928,0,1.558-0.661,1.558-1.495S163.359,4.636,162.416,4.636"/>
	<polygon fill="#FFFFFF" points="169.905,2.795 169.905,13.288 177.944,13.288 177.944,11.447 171.793,11.447 171.793,8.915 
		176.749,8.915 176.749,7.074 171.793,7.074 171.793,4.636 177.99,4.636 177.99,2.795 	"/>
</g>
</svg>
